<svg viewBox="0 0 512 512" xmlns="http://www.w3.org/2000/svg" fill-rule="evenodd" clip-rule="evenodd" stroke-linejoin="round" stroke-miterlimit="2"><path fill="none" d="M0 0h512v512H0z"/><circle cx="256" cy="256" r="256" fill="#ff005c"/><path d="M361.6 291.12c0 18.73-2.08 36.43-6.22 53.09-4.15 16.66-10.52 31.2-19.12 43.64a95.21 95.21 0 01-32.7 29.6c-13.2 7.29-28.94 10.93-47.22 10.93-18.11 0-33.81-3.64-47.1-10.93a95.95 95.95 0 01-32.93-29.6c-8.67-12.44-15.12-26.98-19.34-43.64-4.22-16.66-6.41-34.36-6.57-53.09v-69.78c.16-18.73 2.3-36.43 6.45-53.09 4.15-16.66 10.56-31.28 19.23-43.87a95.4 95.4 0 0132.82-29.82c13.2-7.3 28.87-10.94 46.98-10.94 18.28 0 34.05 3.64 47.33 10.93a94.47 94.47 0 0132.82 29.71c8.6 12.52 15.01 27.14 19.23 43.88 4.22 16.73 6.34 34.47 6.34 53.2v69.78zm-183.56 4.15c0 6.3.23 12.28.7 17.96l151.3-137.03a136.61 136.61 0 00-8.98-27.4 74.93 74.93 0 00-14.85-21.89 66.57 66.57 0 00-21.54-14.5c-8.29-3.54-17.88-5.3-28.79-5.3-14.27 0-26.37 3-36.27 8.98a70.43 70.43 0 00-24.07 24.18c-6.14 10.13-10.59 21.8-13.35 35a201.9 201.9 0 00-4.15 41.46v78.54zm155.92-78.54c0-5.06-.23-10.05-.7-14.97l-150.61 136.8c2.3 9.52 5.45 18.35 9.44 26.49 4 8.14 8.98 15.16 14.97 21.07a65.62 65.62 0 0021.19 13.94c8.14 3.38 17.5 5.06 28.1 5.06 14.27 0 26.37-3.03 36.27-9.1a70.45 70.45 0 0023.95-24.3c6.07-10.12 10.48-21.8 13.24-35a201.9 201.9 0 004.15-41.45v-78.54z" fill="#fff" fill-rule="nonzero"/></svg>